<?xml version="1.0" encoding="utf-8"?>
<!-- Generator: Adobe Illustrator 16.0.4, SVG Export Plug-In . SVG Version: 6.00 Build 0)  -->
<!DOCTYPE svg PUBLIC "-//W3C//DTD SVG 1.1//EN" "http://www.w3.org/Graphics/SVG/1.1/DTD/svg11.dtd">
<svg version="1.1" id="Ebene_1" xmlns="http://www.w3.org/2000/svg" xmlns:xlink="http://www.w3.org/1999/xlink" x="0px" y="0px"
	 width="150px" height="150px" viewBox="0 0 400 532" enable-background="new 0 0 400 532" xml:space="preserve">
<g>
	<g>
		<path fill="#4F3D3F" d="M36.719,412.315c-0.517,0.104-0.904,0.154-1.161,0.154c-0.671,0-1.162-0.128-1.471-0.387
			c-0.31-0.258-0.542-0.542-0.697-0.852c-1.342-2.942-2.942-5.083-4.8-6.426c-1.858-1.342-4.387-2.013-7.587-2.013
			c-1.238,0-2.413,0.168-3.522,0.503c-1.11,0.336-2.078,0.826-2.903,1.471c-0.826,0.646-1.484,1.433-1.974,2.361
			c-0.491,0.929-0.735,1.962-0.735,3.097c0,2.427,1.018,4.413,3.058,5.961c2.039,1.549,5.044,3.123,9.019,4.723
			c4.955,1.962,8.605,4.142,10.955,6.542c2.348,2.399,3.522,5.354,3.522,8.864c0,2.116-0.323,4.091-0.968,5.922
			c-0.646,1.833-1.652,3.434-3.019,4.8c-1.368,1.368-3.135,2.438-5.303,3.213c-2.167,0.774-4.774,1.161-7.819,1.161
			c-3.201,0-6.104-0.336-8.709-1.006c-2.607-0.67-4.813-1.549-6.619-2.633c-0.155-2.167-0.387-4.258-0.697-6.271
			s-0.671-4.025-1.084-6.038c0.36-0.155,0.8-0.232,1.316-0.232c0.62,0,1.096,0.143,1.433,0.426c0.335,0.284,0.631,0.735,0.89,1.354
			c1.29,3.716,2.954,6.452,4.993,8.206c2.039,1.756,4.89,2.633,8.555,2.633c1.651,0,3.097-0.232,4.335-0.697
			c1.239-0.464,2.271-1.109,3.097-1.936c0.825-0.824,1.444-1.754,1.858-2.787c0.413-1.031,0.62-2.141,0.62-3.328
			c0-2.684-0.917-4.8-2.749-6.349c-1.833-1.548-4.452-2.941-7.858-4.181c-2.22-0.825-4.232-1.689-6.039-2.593
			c-1.807-0.903-3.355-1.948-4.645-3.136c-1.291-1.187-2.284-2.567-2.98-4.142s-1.045-3.445-1.045-5.613
			c0-1.908,0.348-3.702,1.045-5.38c0.697-1.677,1.703-3.136,3.02-4.374c1.316-1.239,2.903-2.219,4.761-2.942
			c1.858-0.722,3.948-1.084,6.271-1.084c2.425,0,4.748,0.232,6.967,0.697c2.219,0.464,4.723,1.238,7.51,2.322
			c0.103,1.549,0.244,3.213,0.426,4.993C36.164,409.103,36.409,410.767,36.719,412.315z"/>
		<path fill="#4F3D3F" d="M59.556,445.062c0,1.033,0.36,1.741,1.083,2.129c0.722,0.387,2.064,0.787,4.026,1.2
			c0.515,0.104,0.774,0.516,0.774,1.238c0,0.31-0.052,0.724-0.155,1.238c-1.6-0.104-3.201-0.193-4.8-0.271
			c-1.6-0.077-3.123-0.116-4.567-0.116c-1.394,0-2.93,0.039-4.606,0.116c-1.678,0.077-3.265,0.167-4.761,0.271
			c-0.104-0.515-0.155-0.929-0.155-1.238c0-0.723,0.258-1.135,0.774-1.238c1.961-0.361,3.302-0.748,4.025-1.162
			c0.722-0.412,1.084-1.134,1.084-2.167v-39.405c0-1.032-0.362-1.768-1.084-2.206c-0.723-0.438-2.064-0.813-4.025-1.123
			c-0.31-0.051-0.517-0.206-0.62-0.465c-0.104-0.257-0.155-0.542-0.155-0.852s0.051-0.722,0.155-1.238
			c1.548,0.104,3.161,0.193,4.839,0.271c1.676,0.078,3.186,0.116,4.529,0.116c1.29,0,2.773-0.038,4.451-0.116
			c1.677-0.077,3.316-0.166,4.916-0.271c0.103,0.517,0.155,0.929,0.155,1.238c0,0.774-0.259,1.214-0.774,1.316
			c-1.962,0.31-3.304,0.685-4.026,1.123c-0.723,0.438-1.083,1.174-1.083,2.206V445.062z"/>
		<path fill="#4F3D3F" d="M124.198,425.321c0,3.046-0.53,6.064-1.587,9.058c-1.059,2.994-2.659,5.69-4.8,8.09
			c-2.142,2.4-4.852,4.335-8.129,5.807c-3.278,1.471-7.11,2.206-11.496,2.206H82.315c-1.343,0-2.864,0.039-4.567,0.116
			c-1.704,0.077-3.356,0.167-4.955,0.271c-0.104-0.515-0.155-0.929-0.155-1.238c0-0.723,0.283-1.135,0.852-1.238
			c1.909-0.465,3.277-0.902,4.103-1.316c0.825-0.412,1.239-1.084,1.239-2.013v-39.405c0-1.032-0.387-1.754-1.161-2.168
			c-0.774-0.412-2.167-0.8-4.181-1.161c-0.31-0.051-0.53-0.206-0.658-0.465c-0.129-0.257-0.194-0.542-0.194-0.852
			s0.051-0.722,0.155-1.238c1.084,0.104,2.025,0.168,2.826,0.193c0.8,0.026,1.561,0.065,2.284,0.116
			c0.722,0.052,1.432,0.077,2.129,0.077s1.432,0,2.206,0h15.871c4.335,0,8.141,0.672,11.419,2.014c3.277,1.342,6,3.148,8.167,5.419
			c2.168,2.271,3.793,4.929,4.877,7.974C123.656,418.612,124.198,421.864,124.198,425.321z M116.069,426.792
			c0-7.947-1.974-13.845-5.922-17.689s-9.716-5.768-17.303-5.768h-6.735v41.186c0,0.517,0.128,0.955,0.387,1.316
			c0.257,0.361,0.697,0.646,1.316,0.852s1.471,0.361,2.555,0.464c1.084,0.104,2.451,0.155,4.103,0.155
			c3.974,0,7.328-0.477,10.064-1.433c2.735-0.954,4.955-2.322,6.658-4.103c1.703-1.781,2.942-3.936,3.716-6.465
			C115.682,432.779,116.069,429.94,116.069,426.792z"/>
		<path fill="#4F3D3F" d="M144.79,403.335v19.818h12.077c1.032,0,1.768-0.503,2.207-1.51c0.438-1.006,0.786-2.231,1.045-3.677
			c0.155-0.671,0.62-1.007,1.394-1.007c0.155,0,0.36,0.026,0.62,0.077c0.257,0.053,0.464,0.104,0.619,0.155
			c-0.104,1.136-0.193,2.427-0.271,3.871c-0.077,1.445-0.116,2.709-0.116,3.793c0,0.878,0.025,1.949,0.078,3.213
			c0.051,1.266,0.155,2.697,0.31,4.297c-0.414,0.104-0.801,0.154-1.161,0.154c-0.826,0-1.316-0.335-1.471-1.006
			c-0.259-1.444-0.607-2.671-1.045-3.678c-0.439-1.006-1.175-1.51-2.207-1.51H144.79v18.271c0,1.084,0.697,1.808,2.09,2.168
			c1.394,0.361,3.689,0.542,6.89,0.542h4.258c1.497,0,2.799-0.219,3.91-0.658c1.109-0.438,2.09-1.032,2.942-1.78
			s1.612-1.639,2.284-2.671c0.67-1.032,1.316-2.168,1.936-3.406c0.155-0.361,0.542-0.542,1.161-0.542
			c0.258,0,0.529,0.077,0.813,0.231c0.283,0.155,0.554,0.311,0.813,0.465c-0.464,0.981-0.865,2.155-1.2,3.522
			c-0.336,1.368-0.658,2.671-0.968,3.909c-0.31,1.239-0.632,2.298-0.967,3.175c-0.336,0.878-0.762,1.315-1.277,1.315
			c-0.414,0-1.007-0.026-1.781-0.077c-0.774-0.052-1.614-0.091-2.516-0.116c-0.904-0.026-1.819-0.065-2.749-0.116
			c-0.929-0.052-1.729-0.077-2.4-0.077h-16.954c-1.498,0-3.097,0.039-4.8,0.116s-3.329,0.167-4.877,0.271
			c-0.104-0.515-0.155-0.929-0.155-1.238c0-0.723,0.258-1.135,0.774-1.238c1.961-0.361,3.368-0.748,4.219-1.162
			c0.852-0.412,1.277-1.134,1.277-2.167v-39.405c0-1.032-0.375-1.742-1.123-2.129c-0.749-0.388-2.207-0.786-4.374-1.2
			c-0.517-0.103-0.774-0.542-0.774-1.316c0-0.257,0.012-0.477,0.039-0.657c0.025-0.181,0.064-0.374,0.116-0.581
			c2.219,0.155,4.077,0.259,5.574,0.31c1.496,0.052,2.838,0.077,4.026,0.077h15.251c2.322,0,4.335-0.077,6.039-0.231
			c1.703-0.155,2.838-0.232,3.406-0.232c0.67,0,1.123,0.426,1.354,1.277c0.232,0.852,0.426,1.871,0.581,3.058
			c0.155,1.188,0.335,2.452,0.542,3.794c0.206,1.342,0.593,2.477,1.162,3.406c-0.414,0.31-0.878,0.464-1.394,0.464
			c-0.671,0-1.11-0.232-1.316-0.696c-0.619-1.342-1.213-2.489-1.78-3.445c-0.569-0.954-1.227-1.742-1.974-2.361
			c-0.749-0.619-1.652-1.084-2.709-1.394c-1.059-0.31-2.361-0.464-3.91-0.464H144.79z"/>
		<path fill="#4F3D3F" d="M197.355,427.876h-5.729v17.031c0,1.136,0.529,1.91,1.587,2.322c1.057,0.414,2.671,0.749,4.838,1.007
			c0.619,0.104,0.929,0.542,0.929,1.316c0,0.361-0.052,0.801-0.155,1.315c-1.394-0.104-3.085-0.193-5.071-0.271
			c-1.988-0.077-3.937-0.116-5.845-0.116c-1.343,0-2.891,0.039-4.645,0.116c-1.755,0.077-3.406,0.167-4.955,0.271
			c-0.104-0.515-0.155-0.929-0.155-1.238c0-0.723,0.283-1.135,0.852-1.238c1.961-0.311,3.341-0.684,4.142-1.123
			c0.8-0.438,1.2-1.173,1.2-2.206v-39.405c0-0.979-0.375-1.716-1.123-2.206c-0.749-0.49-2.207-0.864-4.374-1.123
			c-0.517-0.051-0.774-0.49-0.774-1.316c0-0.31,0.051-0.722,0.155-1.238c1.548,0.104,3.147,0.193,4.8,0.271
			c1.651,0.078,3.225,0.116,4.723,0.116h10.451c5.574,0,9.781,1.227,12.619,3.678c2.838,2.452,4.258,5.768,4.258,9.948
			c0,1.136-0.193,2.322-0.58,3.561c-0.387,1.239-0.98,2.452-1.781,3.639c-0.801,1.188-1.832,2.284-3.096,3.29
			c-1.266,1.007-2.748,1.819-4.451,2.439l12.928,17.96c0.98,1.343,2.064,2.272,3.252,2.787c1.186,0.517,2.295,0.904,3.328,1.161
			c0.465,0.104,0.697,0.465,0.697,1.084c0,0.414-0.053,0.877-0.154,1.394c-1.188-0.104-2.633-0.193-4.336-0.271
			c-1.703-0.078-3.277-0.116-4.723-0.116c-1.084,0-2.18-0.465-3.289-1.394c-1.111-0.929-2.156-2.116-3.137-3.562L197.355,427.876z
			 M195.73,424.701c3.612,0,6.399-0.761,8.362-2.283c1.961-1.521,2.941-4.192,2.941-8.013c0-1.6-0.207-3.07-0.619-4.413
			c-0.414-1.341-1.072-2.503-1.975-3.483c-0.904-0.979-2.09-1.754-3.562-2.322c-1.471-0.567-3.265-0.852-5.38-0.852h-3.871v21.366
			H195.73z"/>
		<path fill="#4F3D3F" d="M241.869,403.335v19.818h12.078c1.031,0,1.766-0.503,2.205-1.51c0.438-1.006,0.787-2.231,1.045-3.677
			c0.156-0.671,0.619-1.007,1.395-1.007c0.154,0,0.359,0.026,0.619,0.077c0.258,0.053,0.465,0.104,0.619,0.155
			c-0.104,1.136-0.193,2.427-0.271,3.871c-0.076,1.445-0.115,2.709-0.115,3.793c0,0.878,0.025,1.949,0.076,3.213
			c0.051,1.266,0.156,2.697,0.311,4.297c-0.414,0.104-0.801,0.154-1.162,0.154c-0.826,0-1.314-0.335-1.471-1.006
			c-0.258-1.444-0.607-2.671-1.045-3.678c-0.439-1.006-1.174-1.51-2.205-1.51h-12.078v18.271c0,1.084,0.697,1.808,2.09,2.168
			c1.395,0.361,3.689,0.542,6.891,0.542h4.258c1.496,0,2.799-0.219,3.91-0.658c1.109-0.438,2.09-1.032,2.941-1.78
			s1.613-1.639,2.283-2.671s1.316-2.168,1.936-3.406c0.156-0.361,0.543-0.542,1.162-0.542c0.258,0,0.527,0.077,0.812,0.231
			c0.283,0.155,0.555,0.311,0.812,0.465c-0.465,0.981-0.865,2.155-1.199,3.522c-0.336,1.368-0.658,2.671-0.969,3.909
			c-0.309,1.239-0.633,2.298-0.967,3.175c-0.336,0.878-0.762,1.315-1.277,1.315c-0.414,0-1.006-0.026-1.781-0.077
			c-0.773-0.052-1.613-0.091-2.516-0.116c-0.904-0.026-1.818-0.065-2.748-0.116c-0.93-0.052-1.73-0.077-2.4-0.077h-16.953
			c-1.498,0-3.098,0.039-4.801,0.116s-3.328,0.167-4.877,0.271c-0.104-0.515-0.154-0.929-0.154-1.238
			c0-0.723,0.256-1.135,0.773-1.238c1.961-0.361,3.367-0.748,4.219-1.162c0.852-0.412,1.277-1.134,1.277-2.167v-39.405
			c0-1.032-0.375-1.742-1.123-2.129c-0.748-0.388-2.205-0.786-4.373-1.2c-0.518-0.103-0.773-0.542-0.773-1.316
			c0-0.257,0.012-0.477,0.037-0.657s0.064-0.374,0.117-0.581c2.219,0.155,4.076,0.259,5.574,0.31
			c1.496,0.052,2.838,0.077,4.025,0.077h15.25c2.324,0,4.336-0.077,6.039-0.231c1.703-0.155,2.838-0.232,3.406-0.232
			c0.67,0,1.123,0.426,1.355,1.277s0.426,1.871,0.58,3.058c0.154,1.188,0.336,2.452,0.543,3.794c0.205,1.342,0.592,2.477,1.16,3.406
			c-0.414,0.31-0.877,0.464-1.393,0.464c-0.672,0-1.111-0.232-1.316-0.696c-0.619-1.342-1.213-2.489-1.781-3.445
			c-0.568-0.954-1.227-1.742-1.975-2.361s-1.652-1.084-2.709-1.394c-1.059-0.31-2.361-0.464-3.91-0.464H241.869z"/>
		<path fill="#4F3D3F" d="M320.293,431.669c0,2.942-0.336,5.613-1.006,8.013c-0.672,2.4-1.795,4.479-3.369,6.232
			c-1.574,1.755-3.65,3.109-6.23,4.064c-2.582,0.954-5.807,1.432-9.678,1.432c-4.439,0-8.025-0.555-10.762-1.664
			s-4.838-2.567-6.309-4.374c-1.471-1.806-2.453-3.883-2.941-6.232c-0.492-2.348-0.736-4.734-0.736-7.161v-26.321
			c0-1.032-0.361-1.78-1.084-2.245s-2.09-0.825-4.104-1.084c-0.516-0.051-0.773-0.49-0.773-1.316c0-0.31,0.051-0.722,0.154-1.238
			c1.549,0.104,3.137,0.193,4.762,0.271c1.625,0.078,3.186,0.116,4.684,0.116c1.342,0,2.916-0.038,4.723-0.116
			c1.807-0.077,3.484-0.166,5.031-0.271c0.104,0.517,0.156,0.929,0.156,1.238c0,0.826-0.26,1.266-0.775,1.316
			c-1.961,0.259-3.367,0.619-4.219,1.084s-1.277,1.213-1.277,2.245v24.618c0,5.368,1.07,9.483,3.213,12.349
			c2.141,2.864,5.768,4.296,10.877,4.296c2.891,0,5.342-0.321,7.355-0.968c2.012-0.645,3.664-1.638,4.953-2.98
			c1.291-1.341,2.219-3.083,2.787-5.226c0.568-2.141,0.852-4.709,0.852-7.703v-24.386c0-1.032-0.387-1.78-1.16-2.245
			c-0.775-0.465-2.168-0.825-4.182-1.084c-0.568-0.051-0.852-0.49-0.852-1.316c0-0.31,0.051-0.722,0.156-1.238
			c1.496,0.104,2.953,0.193,4.373,0.271c1.42,0.078,2.645,0.116,3.678,0.116c1.238,0,2.488-0.038,3.754-0.116
			c1.266-0.077,2.518-0.166,3.756-0.271c0.102,0.517,0.154,0.929,0.154,1.238c0,0.259-0.078,0.53-0.232,0.813
			c-0.154,0.284-0.361,0.452-0.619,0.503c-1.91,0.207-3.24,0.556-3.986,1.045c-0.75,0.491-1.123,1.252-1.123,2.284V431.669z"/>
		<path fill="#4F3D3F" d="M380.135,401.632c0.104-0.206,0.219-0.413,0.348-0.62c0.129-0.205,0.35-0.36,0.658-0.464
			c0.311-0.104,0.723-0.193,1.24-0.271c0.514-0.077,1.238-0.116,2.166-0.116c0.414,0,0.955-0.012,1.627-0.038
			c0.67-0.025,1.393-0.051,2.168-0.078c0.773-0.025,1.561-0.063,2.361-0.115c0.799-0.051,1.535-0.104,2.205-0.155
			c0.104,0.517,0.156,0.929,0.156,1.238c0,0.826-0.26,1.266-0.775,1.316c-1.857,0.259-3.096,0.607-3.715,1.045
			c-0.621,0.439-0.93,1.02-0.93,1.742c0,0.052,0.039,0.735,0.115,2.052c0.078,1.315,0.193,3.51,0.35,6.58
			c0.154,3.071,0.348,7.161,0.58,12.271s0.504,11.458,0.812,19.045c0.051,0.98,0.387,1.703,1.006,2.167
			c0.621,0.465,1.885,0.852,3.795,1.162c0.258,0.052,0.451,0.193,0.58,0.426c0.129,0.231,0.193,0.503,0.193,0.812
			s-0.053,0.724-0.154,1.238c-1.807-0.104-3.445-0.193-4.916-0.271s-2.826-0.116-4.064-0.116c-0.518,0-1.162,0.012-1.936,0.039
			c-0.773,0.025-1.588,0.051-2.439,0.077c-0.852,0.025-1.689,0.064-2.516,0.116c-0.826,0.051-1.549,0.103-2.168,0.154
			c-0.104-0.515-0.154-0.929-0.154-1.238c0-0.825,0.258-1.238,0.773-1.238c2.064-0.413,3.471-0.825,4.221-1.239
			c0.746-0.412,1.121-1.109,1.121-2.09c0-0.155-0.037-1.109-0.115-2.864c-0.078-1.754-0.182-3.896-0.311-6.426
			c-0.129-2.528-0.258-5.265-0.387-8.206c-0.129-2.942-0.258-5.716-0.387-8.322c-0.129-2.605-0.246-4.851-0.348-6.735
			c-0.105-1.884-0.156-3.031-0.156-3.445l-16.953,40.953c-0.207,0.465-0.4,0.813-0.582,1.046c-0.18,0.231-0.426,0.348-0.734,0.348
			c-0.361,0-0.594-0.026-0.697-0.077l-18.967-43.508c-0.053,0.516-0.115,1.769-0.193,3.754c-0.078,1.988-0.182,4.349-0.311,7.084
			c-0.129,2.736-0.27,5.626-0.426,8.671c-0.154,3.046-0.297,5.858-0.426,8.438c-0.129,2.581-0.232,4.749-0.309,6.503
			c-0.078,1.755-0.117,2.684-0.117,2.787c0,1.601,1.754,2.709,5.266,3.329c0.516,0.052,0.773,0.464,0.773,1.238
			c0,0.31-0.053,0.724-0.154,1.238c-1.395-0.104-2.762-0.193-4.104-0.271s-2.529-0.116-3.561-0.116c-0.826,0-1.936,0.039-3.33,0.116
			c-1.393,0.077-2.709,0.167-3.947,0.271c-0.104-0.515-0.154-0.929-0.154-1.238c0-0.723,0.256-1.135,0.773-1.238
			c1.393-0.258,2.516-0.632,3.367-1.123c0.852-0.49,1.328-1.226,1.432-2.206c0-0.465,0.051-1.768,0.156-3.91
			c0.102-2.141,0.219-4.684,0.348-7.625c0.129-2.942,0.271-6.064,0.426-9.367s0.297-6.36,0.426-9.175
			c0.129-2.812,0.232-5.135,0.311-6.967c0.076-1.832,0.115-2.774,0.115-2.826c0-0.825-0.322-1.432-0.967-1.819
			c-0.646-0.387-1.873-0.735-3.678-1.045c-0.518-0.051-0.775-0.49-0.775-1.316c0-0.31,0.051-0.722,0.156-1.238
			c0.67,0.052,1.432,0.104,2.283,0.155c0.852,0.052,1.703,0.09,2.555,0.115c0.852,0.027,1.664,0.053,2.439,0.078
			c0.773,0.026,1.393,0.038,1.857,0.038c0.93,0,1.65,0.039,2.168,0.116c0.516,0.078,0.928,0.168,1.238,0.271
			s0.529,0.259,0.658,0.464c0.129,0.207,0.244,0.414,0.348,0.62l16.568,38.631L380.135,401.632z"/>
	</g>
</g>
<g>
	<g>
		<path fill="#4F3D3F" d="M68.855,495.006c1.186,0.148,2.372,0.417,3.558,0.806c1.186,0.39,2.26,0.937,3.225,1.64
			c0.963,0.705,1.741,1.585,2.335,2.642c0.592,1.056,0.889,2.307,0.889,3.752c0,1.632-0.306,3.096-0.917,4.393
			c-0.612,1.298-1.483,2.391-2.613,3.28c-1.131,0.889-2.493,1.575-4.086,2.057c-1.594,0.482-3.355,0.723-5.282,0.723H57.18
			c-0.631,0-1.344,0.019-2.141,0.056c-0.797,0.036-1.548,0.074-2.251,0.111c-0.816,0.036-1.65,0.073-2.502,0.111
			c-0.037-0.075-0.056-0.187-0.056-0.334c-0.037-0.074-0.056-0.167-0.056-0.278c0-0.11,0-0.203,0-0.277
			c0-0.519,0.204-0.815,0.612-0.89c1.445-0.296,2.446-0.584,3.002-0.861c0.556-0.278,0.834-0.787,0.834-1.529v-28.298
			c0-0.37-0.065-0.676-0.194-0.917c-0.13-0.241-0.343-0.445-0.64-0.611c-0.297-0.167-0.686-0.315-1.167-0.445
			c-0.482-0.129-1.094-0.269-1.834-0.417c-0.408-0.074-0.612-0.426-0.612-1.057c0-0.185,0.019-0.333,0.056-0.444
			c0-0.111,0.019-0.223,0.056-0.334c1.112,0.075,2.307,0.14,3.586,0.195s2.363,0.083,3.252,0.083h6.838
			c2.075,0,3.845,0.232,5.31,0.695c1.463,0.464,2.659,1.103,3.586,1.918c0.926,0.815,1.603,1.751,2.029,2.808
			c0.426,1.056,0.64,2.159,0.64,3.308c0,0.853-0.167,1.687-0.5,2.502s-0.788,1.575-1.362,2.279c-0.575,0.704-1.27,1.334-2.085,1.89
			c-0.816,0.557-1.724,0.982-2.724,1.279V495.006z M60.683,494.283c3.261,0,5.605-0.574,7.033-1.724
			c1.426-1.148,2.14-2.965,2.14-5.448c0-2.261-0.714-3.938-2.14-5.031c-1.427-1.093-3.772-1.641-7.033-1.641h-0.834v13.844H60.683z
			 M59.849,510.016c0,0.409,0.129,0.742,0.389,1.001c0.259,0.26,0.583,0.464,0.973,0.611c0.389,0.149,0.806,0.251,1.251,0.307
			c0.445,0.055,0.871,0.083,1.279,0.083c1.408,0,2.687-0.111,3.836-0.334c1.148-0.222,2.131-0.611,2.947-1.167
			c0.814-0.556,1.445-1.307,1.89-2.252s0.667-2.141,0.667-3.586c0-2.668-0.917-4.688-2.752-6.06
			c-1.834-1.371-4.346-2.057-7.533-2.057h-2.946V510.016z"/>
		<path fill="#4F3D3F" d="M102.94,509.127c0.259-0.259,0.536-0.39,0.832-0.39c0.369,0,0.72,0.315,1.053,0.945
			c-0.482,0.667-1.038,1.316-1.668,1.945c-0.63,0.631-1.381,1.195-2.251,1.696c-0.871,0.5-1.862,0.898-2.975,1.195
			c-1.112,0.296-2.39,0.444-3.836,0.444c-1.483,0-2.891-0.241-4.225-0.723s-2.511-1.223-3.53-2.224
			c-1.02-1.001-1.834-2.242-2.446-3.725c-0.611-1.482-0.917-3.225-0.917-5.227c0-1.89,0.361-3.632,1.084-5.226
			c0.723-1.593,1.658-2.955,2.808-4.086c1.148-1.131,2.418-2.011,3.808-2.641s2.733-0.945,4.031-0.945c3.447,0,5.957,1,7.533,3.002
			c1.575,2.001,2.363,4.614,2.363,7.839c0,0.223-0.111,0.334-0.333,0.334l-16.067,0.723c0,1.445,0.203,2.779,0.609,4.002
			c0.407,1.224,0.979,2.28,1.718,3.169c0.738,0.89,1.635,1.585,2.688,2.085c1.053,0.501,2.244,0.751,3.574,0.751
			c1.181,0,2.317-0.278,3.408-0.834C101.287,510.684,102.202,509.979,102.94,509.127z M93.955,492.17
			c-1.845,0-3.284,0.723-4.315,2.168c-1.033,1.446-1.549,3.336-1.549,5.671l10.456-0.5c0.552,0,0.83-0.241,0.83-0.723
			c0-0.704-0.111-1.445-0.332-2.224c-0.221-0.778-0.553-1.492-0.996-2.141c-0.443-0.648-1.005-1.186-1.687-1.612
			C95.678,492.384,94.876,492.17,93.955,492.17z"/>
		<path fill="#4F3D3F" d="M123.727,497.007c-0.297,0-0.51-0.064-0.64-0.194c-0.13-0.13-0.213-0.269-0.25-0.417
			c-0.26-1.52-0.862-2.604-1.807-3.253c-0.945-0.647-2.122-0.973-3.53-0.973c-1.075,0-2.029,0.306-2.863,0.918
			c-0.834,0.611-1.251,1.454-1.251,2.529c0,0.964,0.379,1.771,1.14,2.418c0.759,0.649,2.141,1.288,4.142,1.918
			c1.074,0.334,2.065,0.705,2.974,1.112c0.908,0.408,1.686,0.899,2.335,1.473c0.648,0.575,1.158,1.279,1.529,2.113
			c0.37,0.834,0.556,1.826,0.556,2.975c0,0.964-0.176,1.89-0.528,2.779c-0.353,0.89-0.89,1.668-1.612,2.335
			s-1.631,1.205-2.724,1.612c-1.094,0.407-2.4,0.611-3.919,0.611c-1.187,0-2.511-0.139-3.975-0.417
			c-1.464-0.277-2.789-0.75-3.975-1.418c-0.075-0.963-0.139-1.973-0.194-3.029s-0.083-2.121-0.083-3.197h0.556
			c0.37,0,0.685,0.065,0.945,0.195c0.259,0.13,0.408,0.343,0.445,0.639c0.148,1.557,0.75,2.808,1.807,3.753
			c1.057,0.945,2.53,1.418,4.42,1.418c1.52,0,2.687-0.343,3.502-1.028c0.815-0.686,1.223-1.621,1.223-2.808
			c0-1.224-0.445-2.159-1.334-2.808c-0.89-0.648-2.206-1.232-3.947-1.752c-2.188-0.667-3.901-1.537-5.143-2.612
			c-1.242-1.075-1.863-2.649-1.863-4.726c0-0.964,0.185-1.871,0.556-2.725c0.37-0.852,0.89-1.593,1.557-2.224
			c0.667-0.63,1.482-1.13,2.446-1.501c0.963-0.37,2.038-0.556,3.225-0.556c1.482,0,2.881,0.194,4.197,0.584
			c1.315,0.389,2.344,0.806,3.085,1.25c0.037,0.298,0.074,0.659,0.111,1.085c0.036,0.426,0.064,0.871,0.083,1.334
			c0.018,0.464,0.036,0.927,0.055,1.39c0.019,0.464,0.028,0.881,0.028,1.251L123.727,497.007z"/>
		<path fill="#4F3D3F" d="M143.24,511.017c0.185-0.185,0.342-0.296,0.473-0.333c0.129-0.037,0.231-0.056,0.306-0.056
			c0.333,0,0.63,0.241,0.889,0.723c-0.964,1.075-2.001,1.945-3.113,2.612c-1.112,0.668-2.298,1.001-3.558,1.001
			c-0.742,0-1.445-0.083-2.112-0.25s-1.242-0.491-1.724-0.973c-0.482-0.481-0.862-1.14-1.14-1.974s-0.417-1.918-0.417-3.253v-15.344
			h-3.335v-0.611c0-0.259,0.046-0.501,0.139-0.723c0.092-0.223,0.287-0.334,0.584-0.334c1,0,1.815-0.259,2.446-0.778
			c0.629-0.519,1.148-1.186,1.557-2.001c0.445-0.89,0.834-1.724,1.167-2.502s0.704-1.168,1.112-1.168h1v5.782h6.505
			c0,0.778-0.083,1.362-0.25,1.751c-0.167,0.39-0.472,0.584-0.917,0.584h-5.337v13.787c0,1.187,0.056,2.141,0.167,2.863
			s0.278,1.279,0.5,1.668c0.222,0.39,0.481,0.64,0.778,0.751c0.296,0.11,0.629,0.166,1,0.166c0.63,0,1.213-0.139,1.751-0.417
			C142.248,511.712,142.757,511.388,143.24,511.017z"/>
		<path fill="#4F3D3F" d="M170.481,512.796c0.407,0,0.63,0.389,0.667,1.167c-0.964,0.668-2.188,1.001-3.669,1.001
			c-0.82,0-1.529-0.12-2.131-0.361c-0.601-0.241-1.107-0.564-1.52-0.973c-0.414-0.407-0.732-0.87-0.957-1.39
			c-0.226-0.519-0.376-1.057-0.451-1.612c-0.927,1.668-2.029,2.808-3.308,3.419c-1.279,0.611-2.752,0.917-4.42,0.917
			c-0.742,0-1.529-0.065-2.363-0.194c-0.834-0.131-1.622-0.398-2.363-0.807c-0.742-0.407-1.354-0.981-1.834-1.723
			c-0.482-0.741-0.723-1.724-0.723-2.947c0-1.37,0.324-2.529,0.973-3.475c0.648-0.944,1.482-1.723,2.502-2.335
			c1.019-0.611,2.131-1.103,3.335-1.473c1.204-0.37,2.363-0.686,3.475-0.945c0.63-0.111,1.214-0.231,1.751-0.361
			c0.537-0.13,1.009-0.269,1.417-0.417c0.519-0.147,0.843-0.352,0.973-0.611c0.129-0.259,0.194-0.76,0.194-1.501
			c0-1.742-0.333-3.178-1-4.309s-1.854-1.696-3.558-1.696c-0.631,0-1.167,0.075-1.612,0.223c-0.445,0.148-0.815,0.381-1.112,0.695
			c-0.297,0.314-0.556,0.731-0.778,1.25c-0.223,0.52-0.445,1.132-0.667,1.835c-0.111,0.408-0.361,0.705-0.751,0.89
			c-0.389,0.186-1.047,0.408-1.973,0.667c-0.223,0.075-0.5,0.148-0.834,0.223s-0.612,0.111-0.834,0.111
			c-0.371,0-0.556-0.39-0.556-1.168c0-0.814,0.314-1.63,0.945-2.446c0.63-0.814,1.436-1.537,2.418-2.168
			c0.981-0.63,2.047-1.14,3.196-1.528c1.148-0.39,2.242-0.584,3.28-0.584c1.297,0,2.467,0.111,3.509,0.333
			c1.042,0.223,1.939,0.631,2.689,1.224s1.322,1.39,1.717,2.391c0.394,1,0.59,2.298,0.59,3.892v9.562
			c0,1.298,0.046,2.233,0.139,2.807c0.092,0.575,0.231,1.029,0.417,1.362c0.259,0.52,0.546,0.862,0.862,1.028
			c0.314,0.167,0.639,0.251,0.973,0.251c0.408,0,0.695-0.037,0.862-0.111C170.12,512.833,170.295,512.796,170.481,512.796z
			 M162.03,501.955l-1.789,0.277c-0.97,0.187-1.911,0.408-2.825,0.668c-0.914,0.26-1.724,0.621-2.432,1.084
			c-0.709,0.464-1.277,1.047-1.706,1.751s-0.643,1.576-0.643,2.613c0,1.408,0.363,2.483,1.09,3.224
			c0.727,0.742,1.631,1.112,2.713,1.112c0.708,0,1.407-0.157,2.097-0.473c0.69-0.314,1.286-0.759,1.79-1.334
			c0.504-0.574,0.914-1.251,1.231-2.029c0.316-0.778,0.475-1.631,0.475-2.558V501.955z"/>
		<path fill="#4F3D3F" d="M186.326,511.017c0.185-0.185,0.342-0.296,0.473-0.333c0.129-0.037,0.231-0.056,0.306-0.056
			c0.333,0,0.63,0.241,0.889,0.723c-0.964,1.075-2.001,1.945-3.113,2.612c-1.112,0.668-2.298,1.001-3.558,1.001
			c-0.742,0-1.445-0.083-2.112-0.25s-1.242-0.491-1.724-0.973c-0.482-0.481-0.862-1.14-1.14-1.974s-0.417-1.918-0.417-3.253v-15.344
			h-3.335v-0.611c0-0.259,0.046-0.501,0.139-0.723c0.092-0.223,0.287-0.334,0.584-0.334c1,0,1.815-0.259,2.446-0.778
			c0.629-0.519,1.148-1.186,1.557-2.001c0.445-0.89,0.834-1.724,1.167-2.502s0.704-1.168,1.112-1.168h1v5.782h6.505
			c0,0.778-0.083,1.362-0.25,1.751c-0.167,0.39-0.472,0.584-0.917,0.584h-5.337v13.787c0,1.187,0.056,2.141,0.167,2.863
			s0.278,1.279,0.5,1.668c0.222,0.39,0.481,0.64,0.778,0.751c0.296,0.11,0.629,0.166,1,0.166c0.63,0,1.213-0.139,1.751-0.417
			C185.333,511.712,185.843,511.388,186.326,511.017z"/>
		<path fill="#4F3D3F" d="M202.837,511.017c0.185-0.185,0.342-0.296,0.473-0.333c0.129-0.037,0.23-0.056,0.306-0.056
			c0.333,0,0.63,0.241,0.89,0.723c-0.965,1.075-2.002,1.945-3.113,2.612c-1.112,0.668-2.299,1.001-3.559,1.001
			c-0.741,0-1.445-0.083-2.112-0.25s-1.242-0.491-1.724-0.973c-0.482-0.481-0.862-1.14-1.14-1.974s-0.417-1.918-0.417-3.253v-15.344
			h-3.335v-0.611c0-0.259,0.046-0.501,0.139-0.723c0.092-0.223,0.287-0.334,0.584-0.334c1,0,1.815-0.259,2.446-0.778
			c0.629-0.519,1.148-1.186,1.557-2.001c0.445-0.89,0.834-1.724,1.167-2.502c0.333-0.778,0.703-1.168,1.111-1.168h1.001v5.782h6.505
			c0,0.778-0.084,1.362-0.25,1.751c-0.167,0.39-0.473,0.584-0.918,0.584h-5.337v13.787c0,1.187,0.056,2.141,0.167,2.863
			s0.278,1.279,0.5,1.668c0.223,0.39,0.481,0.64,0.778,0.751c0.297,0.11,0.63,0.166,1.001,0.166c0.63,0,1.214-0.139,1.751-0.417
			C201.845,511.712,202.354,511.388,202.837,511.017z"/>
		<path fill="#4F3D3F" d="M209.897,495.95c0-1.223-0.177-2.047-0.528-2.474c-0.353-0.426-1.159-0.695-2.419-0.806
			c-0.481-0.074-0.723-0.314-0.723-0.723c0-0.223,0.037-0.481,0.111-0.779c0.481,0,1.121-0.027,1.918-0.083s1.474-0.139,2.029-0.25
			c0.814-0.111,1.529-0.25,2.141-0.417s1.064-0.25,1.362-0.25c0.519,0,0.778,0.277,0.778,0.834v13.898
			c0,0.927,0.056,1.779,0.166,2.558c0.111,0.778,0.314,1.455,0.612,2.029c0.296,0.574,0.723,1.02,1.278,1.334
			c0.556,0.315,1.26,0.473,2.112,0.473c0.927,0,1.835-0.157,2.725-0.473c0.89-0.314,1.677-0.778,2.362-1.39
			c0.686-0.612,1.232-1.362,1.641-2.252c0.407-0.89,0.611-1.927,0.611-3.113v-8.117c0-1.186-0.177-2.001-0.528-2.445
			c-0.353-0.445-1.177-0.724-2.474-0.834c-0.482-0.074-0.723-0.314-0.723-0.723c0-0.223,0.036-0.481,0.111-0.779
			c0.48,0,1.12-0.027,1.918-0.083c0.796-0.056,1.491-0.139,2.084-0.25c0.826-0.111,1.54-0.25,2.141-0.417s1.052-0.25,1.352-0.25
			c0.526,0,0.789,0.277,0.789,0.834v18.068c0,0.63,0.036,1.14,0.111,1.528c0.073,0.39,0.223,0.705,0.444,0.945
			c0.223,0.241,0.528,0.427,0.918,0.556c0.389,0.131,0.897,0.214,1.528,0.25c0.481,0.075,0.723,0.315,0.723,0.724
			c0,0.222-0.037,0.481-0.111,0.778c-0.704,0-1.445,0.055-2.224,0.166s-1.523,0.223-2.234,0.334
			c-0.713,0.111-1.341,0.223-1.885,0.334c-0.544,0.11-0.929,0.166-1.152,0.166c-0.525,0-0.788-0.277-0.788-0.834v-4.614
			c-0.111,0.111-0.427,0.464-0.945,1.057c-0.52,0.593-1.195,1.223-2.029,1.89c-0.834,0.668-1.798,1.271-2.891,1.808
			c-1.094,0.536-2.271,0.806-3.53,0.806c-2.261,0-3.957-0.648-5.087-1.945c-1.131-1.297-1.695-3.132-1.695-5.504V495.95z"/>
		<path fill="#4F3D3F" d="M262.322,511.128c0,0.556,0.334,0.973,1.001,1.251s1.408,0.491,2.224,0.64
			c0.334,0.074,0.501,0.297,0.501,0.667c0,0.222-0.038,0.52-0.111,0.89c-0.965-0.075-1.909-0.14-2.836-0.195
			s-1.927-0.083-3.002-0.083c-1,0-1.992,0.027-2.974,0.083c-0.983,0.056-1.956,0.12-2.919,0.195c-0.075-0.37-0.111-0.668-0.111-0.89
			c0-0.37,0.167-0.593,0.5-0.667c0.778-0.148,1.482-0.361,2.113-0.64c0.629-0.278,0.944-0.695,0.944-1.251v-10.896
			c0-0.926-0.056-1.779-0.166-2.558s-0.322-1.454-0.637-2.029c-0.313-0.574-0.737-1.019-1.272-1.334
			c-0.535-0.314-1.227-0.473-2.074-0.473c-0.923,0-1.826,0.158-2.711,0.473c-0.885,0.315-1.669,0.778-2.352,1.39
			s-1.227,1.362-1.632,2.252c-0.406,0.89-0.608,1.909-0.608,3.058v10.118c0,0.556,0.324,0.973,0.973,1.251s1.343,0.491,2.085,0.64
			c0.334,0.074,0.5,0.297,0.5,0.667c0,0.222-0.037,0.52-0.11,0.89c-0.965-0.075-1.911-0.14-2.841-0.195s-1.92-0.083-2.97-0.083
			c-1.088,0-2.115,0.027-3.082,0.083c-0.966,0.056-1.912,0.12-2.838,0.195c-0.075-0.37-0.111-0.668-0.111-0.89
			c0-0.37,0.166-0.593,0.5-0.667c0.814-0.148,1.557-0.361,2.224-0.64s1.001-0.713,1.001-1.307V495.95
			c0-1.111-0.194-1.908-0.584-2.391c-0.389-0.48-1.232-0.778-2.529-0.889c-0.482-0.074-0.723-0.334-0.723-0.778
			c0-0.186,0.036-0.426,0.111-0.724c0.48,0,1.157-0.027,2.029-0.083c0.87-0.056,1.586-0.12,2.146-0.194
			c0.861-0.147,1.629-0.306,2.305-0.473c0.674-0.167,1.161-0.25,1.462-0.25c0.524,0,0.787,0.277,0.787,0.834
			c0,0.52-0.056,1.14-0.167,1.862s-0.167,1.677-0.167,2.863c1.588-1.779,3.111-3.15,4.571-4.114
			c1.458-0.964,3.056-1.445,4.792-1.445c2.253,0,3.942,0.658,5.068,1.974c1.127,1.315,1.69,3.141,1.69,5.476V511.128z"/>
		<path fill="#4F3D3F" d="M272.606,513.129c-1.594-0.926-2.391-2.26-2.391-4.002c0-1.854,1.224-3.373,3.67-4.56
			c-1.038-0.629-1.862-1.473-2.475-2.529c-0.611-1.057-0.917-2.362-0.917-3.919c0-1.037,0.25-2.038,0.751-3.003
			c0.5-0.963,1.176-1.815,2.028-2.557s1.825-1.325,2.919-1.752c1.093-0.425,2.252-0.639,3.475-0.639
			c1.854,0,3.336,0.222,4.448,0.667c1.111,0.444,2.075,1.001,2.891,1.668l5.504-2.391c0.407,0.26,0.703,0.603,0.89,1.028
			c0.185,0.427,0.277,0.825,0.277,1.195c0,0.815-0.277,1.223-0.833,1.223l-2.002-0.055c-0.704,0-1.557,0.11-2.558,0.333
			c0.89,1.149,1.335,2.558,1.335,4.226c0,1.149-0.26,2.205-0.778,3.169c-0.52,0.964-1.224,1.788-2.113,2.474
			c-0.89,0.687-1.945,1.223-3.169,1.612c-1.223,0.389-2.521,0.584-3.892,0.584c-0.778,0-1.52-0.046-2.224-0.14
			c-0.704-0.092-1.371-0.25-2.001-0.473c-0.965,0.445-1.632,0.89-2.002,1.335c-0.371,0.444-0.556,0.871-0.556,1.278
			c0,0.297,0.092,0.584,0.278,0.862c0.185,0.277,0.527,0.519,1.028,0.723c0.5,0.204,1.204,0.37,2.112,0.5s2.065,0.194,3.475,0.194
			c1.668,0,3.243,0.131,4.726,0.39c1.482,0.26,2.789,0.686,3.92,1.278c1.13,0.594,2.02,1.372,2.668,2.335
			c0.648,0.964,0.974,2.131,0.974,3.503c0,1.519-0.307,2.891-0.918,4.113c-0.611,1.224-1.465,2.271-2.558,3.142
			c-1.093,0.87-2.409,1.537-3.947,2.001c-1.538,0.463-3.216,0.695-5.031,0.695c-3.483,0-6.208-0.631-8.172-1.891
			c-1.965-1.26-2.946-3.279-2.946-6.06c0-0.815,0.129-1.566,0.389-2.252c0.259-0.686,0.584-1.306,0.973-1.862
			c0.39-0.556,0.834-1.038,1.335-1.445C271.689,513.723,272.162,513.389,272.606,513.129z M273.941,513.797
			c-0.89,0.852-1.391,1.927-1.501,3.225c-0.038,0.296-0.056,0.592-0.056,0.889s0,0.612,0,0.945c0.036,0.778,0.24,1.557,0.611,2.335
			c0.37,0.778,0.907,1.464,1.612,2.058c0.703,0.592,1.574,1.074,2.612,1.445c1.038,0.37,2.242,0.556,3.614,0.556
			c2.558,0,4.42-0.565,5.587-1.695c1.168-1.131,1.751-2.53,1.751-4.197c0-0.705-0.148-1.354-0.444-1.946
			c-0.297-0.594-0.798-1.104-1.501-1.529c-0.704-0.426-1.632-0.76-2.779-1c-1.149-0.242-2.577-0.361-4.281-0.361
			c-0.964,0-1.899-0.056-2.808-0.167S274.645,514.057,273.941,513.797z M280.224,503.956c1.37,0,2.464-0.444,3.279-1.334
			s1.224-2.112,1.224-3.669c0-0.815-0.084-1.621-0.25-2.419c-0.167-0.797-0.455-1.52-0.862-2.168
			c-0.408-0.648-0.954-1.176-1.64-1.585c-0.687-0.407-1.548-0.611-2.585-0.611c-1.298,0-2.326,0.427-3.086,1.279
			s-1.14,2.021-1.14,3.502c0,0.854,0.083,1.695,0.25,2.529s0.445,1.585,0.834,2.252c0.39,0.667,0.908,1.205,1.557,1.612
			C278.453,503.753,279.259,503.956,280.224,503.956z"/>
		<path fill="#4F3D3F" d="M315.254,509.127c0.259-0.259,0.536-0.39,0.831-0.39c0.369,0,0.721,0.315,1.053,0.945
			c-0.481,0.667-1.038,1.316-1.667,1.945c-0.631,0.631-1.382,1.195-2.252,1.696c-0.871,0.5-1.862,0.898-2.975,1.195
			c-1.111,0.296-2.391,0.444-3.836,0.444c-1.482,0-2.891-0.241-4.225-0.723c-1.335-0.481-2.512-1.223-3.53-2.224
			c-1.021-1.001-1.835-2.242-2.446-3.725c-0.612-1.482-0.918-3.225-0.918-5.227c0-1.89,0.361-3.632,1.084-5.226
			c0.724-1.593,1.659-2.955,2.808-4.086s2.419-2.011,3.809-2.641s2.732-0.945,4.03-0.945c3.447,0,5.958,1,7.533,3.002
			c1.575,2.001,2.363,4.614,2.363,7.839c0,0.223-0.111,0.334-0.334,0.334l-16.066,0.723c0,1.445,0.202,2.779,0.608,4.002
			c0.406,1.224,0.979,2.28,1.719,3.169c0.738,0.89,1.635,1.585,2.688,2.085c1.053,0.501,2.243,0.751,3.573,0.751
			c1.182,0,2.318-0.278,3.408-0.834C313.601,510.684,314.516,509.979,315.254,509.127z M306.269,492.17
			c-1.845,0-3.283,0.723-4.315,2.168c-1.033,1.446-1.549,3.336-1.549,5.671l10.456-0.5c0.553,0,0.829-0.241,0.829-0.723
			c0-0.704-0.11-1.445-0.331-2.224c-0.222-0.778-0.554-1.492-0.997-2.141c-0.442-0.648-1.005-1.186-1.687-1.612
			C307.992,492.384,307.19,492.17,306.269,492.17z"/>
		<path fill="#4F3D3F" d="M345.38,511.128c0,0.556,0.334,0.973,1.001,1.251s1.408,0.491,2.224,0.64
			c0.334,0.074,0.501,0.297,0.501,0.667c0,0.222-0.038,0.52-0.111,0.89c-0.965-0.075-1.909-0.14-2.836-0.195
			s-1.927-0.083-3.002-0.083c-1,0-1.992,0.027-2.974,0.083c-0.983,0.056-1.956,0.12-2.919,0.195c-0.075-0.37-0.111-0.668-0.111-0.89
			c0-0.37,0.167-0.593,0.5-0.667c0.778-0.148,1.482-0.361,2.113-0.64c0.629-0.278,0.944-0.695,0.944-1.251v-10.896
			c0-0.926-0.056-1.779-0.166-2.558s-0.322-1.454-0.637-2.029c-0.313-0.574-0.737-1.019-1.272-1.334
			c-0.535-0.314-1.227-0.473-2.074-0.473c-0.923,0-1.826,0.158-2.711,0.473c-0.885,0.315-1.669,0.778-2.352,1.39
			s-1.227,1.362-1.632,2.252c-0.406,0.89-0.608,1.909-0.608,3.058v10.118c0,0.556,0.324,0.973,0.973,1.251s1.343,0.491,2.085,0.64
			c0.334,0.074,0.5,0.297,0.5,0.667c0,0.222-0.037,0.52-0.11,0.89c-0.965-0.075-1.911-0.14-2.841-0.195s-1.92-0.083-2.97-0.083
			c-1.088,0-2.115,0.027-3.082,0.083c-0.966,0.056-1.912,0.12-2.838,0.195c-0.075-0.37-0.111-0.668-0.111-0.89
			c0-0.37,0.166-0.593,0.5-0.667c0.814-0.148,1.557-0.361,2.224-0.64s1.001-0.713,1.001-1.307V495.95
			c0-1.111-0.194-1.908-0.584-2.391c-0.389-0.48-1.232-0.778-2.529-0.889c-0.482-0.074-0.723-0.334-0.723-0.778
			c0-0.186,0.036-0.426,0.111-0.724c0.48,0,1.157-0.027,2.029-0.083c0.87-0.056,1.586-0.12,2.146-0.194
			c0.861-0.147,1.629-0.306,2.305-0.473c0.674-0.167,1.161-0.25,1.462-0.25c0.524,0,0.787,0.277,0.787,0.834
			c0,0.52-0.056,1.14-0.167,1.862s-0.167,1.677-0.167,2.863c1.588-1.779,3.111-3.15,4.571-4.114
			c1.458-0.964,3.056-1.445,4.792-1.445c2.253,0,3.942,0.658,5.068,1.974c1.127,1.315,1.69,3.141,1.69,5.476V511.128z"/>
	</g>
</g>
<path fill="#4F3D3F" d="M199.642,4.021c-103.29,0-187.022,83.732-187.022,187.022c0,103.291,83.732,187.022,187.022,187.022
	c103.289,0,187.022-83.731,187.022-187.022C386.664,87.753,302.931,4.021,199.642,4.021z M357.601,195.384
	c0.437-2.305,3.257,0.667,1.495,7.508c-1.761,6.844-5.968,11.76-13.045,18.704c-11.08,10.875-22.371,17.318-22.371,17.318
	s17.272-14.471,25.979-25.502C356.292,205.006,357.164,197.688,357.601,195.384z M292.832,297.264
	c-3.637-0.604-8.493-1.55-11.456-2.137c0.979-1.643,1.907-3.382,2.77-5.225c0.369-0.794,0.702-1.626,1.014-2.476
	c11.479,0.478,19.774,0.922,26.366,0.117c0,0-3.104,5.146-6.42,7.059C301.79,296.52,297.471,298.034,292.832,297.264z
	 M301.119,305.729c0,0-4.025,3.363-7.306,4.464c-3.284,1.098-7.21,1.31-10.138-0.077c-1.75-0.831-6.483-3.553-9.486-5.3
	c1.584-1.751,3.137-3.664,4.615-5.753c3.216,1.256,7.82,3.013,10.825,3.964C296.247,305.124,301.119,305.729,301.119,305.729z
	 M318.655,220.424c0,0,4.038,11.956-3.602,20.237c-6.775,7.337-22.13,15.906-28.852,19.47c-0.609-2.33-1.403-4.54-2.384-6.546
	c-0.135-0.276-0.286-0.53-0.428-0.797C295.14,244.51,311.257,233.106,318.655,220.424z M281.484,249.72
	c-1.715-2.359-3.731-4.23-6.011-5.538c10.891-12.263,26.553-28.489,32.979-45.369c0,0,7.142,13.177,2,22.181
	C303.903,232.462,287.776,245.066,281.484,249.72z M286.44,283.166c0.68-2.843,1.088-5.856,1.213-8.908
	c4.337-0.709,11.916-2.016,16.952-3.253c8.031-1.972,12.351-3.562,12.351-3.562s-0.051,8.787-7.938,12.481
	C303.598,282.459,292.204,283.037,286.44,283.166z M301.225,266.69c-3.741,1.312-9.912,3.094-13.554,4.121
	c-0.076-2.886-0.391-5.756-0.958-8.496c11.847-4.043,24.538-10.36,35.157-17.452C321.229,254.127,318.65,260.566,301.225,266.69z
	 M323.926,245.007l0.111-1.643c4.549-3.076,10.864-7.425,15.742-11.079c10.816-8.104,16.652-16.278,16.652-16.278
	s3.691,12.618-7.029,23.335c-6.346,6.349-20.967,14.273-29.932,18.818C322.494,254.419,323.568,250.147,323.926,245.007z
	 M346.229,209.061c-4.769,8.579-18.144,20.567-25.994,27.188c2.643-6.551,1.257-13.284,0.623-15.63
	c3.516-4.098,7.998-9.437,12.293-14.895c9.049-11.492,13.549-23.377,13.549-23.377S353.086,196.711,346.229,209.061z
	 M343.146,161.106c-0.191-2.437,3.457-0.227,3.566,7.132c0.112,7.357-2.764,13.453-7.962,22.374
	c-8.149,13.97-17.719,23.545-17.719,23.545s13.38-19.284,19.091-32.757C344.479,171.132,343.343,163.543,343.146,161.106z
	 M329.032,146.327c0,0,10.724,14.407,8.018,29.329c-2.327,12.823-15.778,31.72-22.97,41.11c1.258-7.326-1.968-15.102-3.292-17.884
	c3.971-7.867,11.257-22.667,14.094-30.846C329.341,155.174,329.032,146.327,329.032,146.327z M322.796,141.448
	c2.019,7.89,0.397,15.164-3.075,26.062c-5.438,17.065-13.587,29.758-13.587,29.758s9.872-24.09,12.741-40.015
	c2.191-12.135-1.022-20.019-1.864-22.589C316.168,132.091,320.782,133.558,322.796,141.448z M297.011,88.585l3.328-2.288
	l-2.213,3.136l9.261,1.923l-9.598,0.301l2.509,4.19l-3.251-2.651l-1.35,9.627l-1.219-9.557l-3.893,2.731l3.229-4.189l-9.809-0.452
	l9.235-1.856l-2.624-3.057l3.806,2.272l1.274-8.854L297.011,88.585z M268.389,43.659l5.964,3.561l1.999-13.877l2.062,13.675
	l5.215-3.585l-3.468,4.914l14.517,3.016l-15.046,0.472l3.932,6.568l-5.095-4.155l-2.117,15.092l-1.91-14.983l-6.102,4.281
	l5.06-6.566l-15.375-0.709l14.477-2.911L268.389,43.659z M237.175,126.29l0.847-0.203l-3.97-4.625l6.003,3.584l0.448-3.109
	l1.562-80.005l1.486,78.992l0.59,3.918l5.249-3.608l-3.147,4.459l0.714,0.096l-0.442,0.518l13.996,2.908l-15.144,0.476l3.957,6.61
	l-5.127-4.181l-2.129,15.188l-1.925-15.08l-6.14,4.308l5.091-6.607l-15.475-0.714l13.728-2.759L237.175,126.29z M207.182,37.608
	l3.134,1.871l1.051-7.292l1.08,7.185l2.74-1.884l-1.821,2.582l7.629,1.584l-7.907,0.248l2.068,3.452l-2.679-2.184l-1.11,7.928
	l-1.005-7.872l-3.205,2.249l2.657-3.449l-8.077-0.372l7.605-1.529L207.182,37.608z M180.609,87.677l4.393,2.624l1.473-10.222
	l1.518,10.072l3.841-2.64l-2.553,3.619l10.693,2.221l-11.084,0.347l2.897,4.839l-3.754-3.062l-1.558,11.118l-1.408-11.036
	l-4.494,3.152l3.728-4.836l-11.326-0.522l10.663-2.144L180.609,87.677z M146.795,24.993l4.264,2.545l1.429-9.922l1.473,9.778
	l3.73-2.564l-2.48,3.514l10.379,2.156l-10.758,0.337l2.812,4.697l-3.644-2.972l-1.513,10.791l-1.367-10.713l-4.362,3.061
	l3.618-4.695L139.385,30.5l10.351-2.082L146.795,24.993z M138.54,166.142l1.175-0.282l-5.51-6.422l8.334,4.975l0.623-4.324
	l2.168-111.07l2.063,109.686l0.817,5.426l7.29-5.01l-4.37,6.189l0.989,0.133l-0.616,0.721l19.434,4.037l-21.025,0.66l5.495,9.179
	l-7.119-5.805l-2.957,21.086l-2.67-20.937l-8.526,5.982l7.071-9.176l-21.486-0.99l19.058-3.831L138.54,166.142z M83.386,81.812
	l7.105,4.242l2.382-16.533l2.455,16.292l6.214-4.271l-4.132,5.854l17.293,3.593l-17.925,0.562l4.685,7.826l-6.07-4.95l-2.52,17.978
	l-2.277-17.85l-7.269,5.1l6.027-7.822l-18.316-0.844l17.246-3.468L83.386,81.812z M106.452,297.264
	c-4.64,0.771-8.955-0.744-12.272-2.661c-3.316-1.912-6.42-7.059-6.42-7.059c6.59,0.805,14.886,0.36,26.366-0.117
	c0.312,0.85,0.643,1.682,1.014,2.476c0.861,1.843,1.789,3.582,2.768,5.225C114.944,295.714,110.09,296.659,106.452,297.264z
	 M120.48,299.062c1.48,2.089,3.031,4.002,4.616,5.753c-3.003,1.747-7.737,4.469-9.487,5.3c-2.929,1.387-6.853,1.175-10.137,0.077
	c-3.281-1.101-7.308-4.464-7.308-4.464s4.876-0.604,11.49-2.702C112.658,302.075,117.264,300.318,120.48,299.062z M77.415,244.863
	c10.618,7.092,23.312,13.409,35.155,17.452c-0.565,2.74-0.88,5.61-0.954,8.496c-3.643-1.027-9.816-2.809-13.557-4.121
	C80.631,260.566,78.058,254.127,77.415,244.863z M79.814,258.16c-8.964-4.545-23.585-12.47-29.934-18.818
	c-10.718-10.717-7.029-23.335-7.029-23.335s5.839,8.174,16.652,16.278c4.88,3.654,11.194,8.003,15.742,11.079l0.114,1.643
	C75.717,250.147,76.789,254.419,79.814,258.16z M94.681,271.005c5.032,1.237,12.614,2.544,16.95,3.253
	c0.125,3.052,0.533,6.065,1.212,8.908c-5.763-0.129-17.153-0.707-22.574-3.242c-7.889-3.694-7.937-12.481-7.937-12.481
	S86.646,269.033,94.681,271.005z M84.233,240.661c-7.641-8.281-3.604-20.237-3.604-20.237c7.396,12.683,23.517,24.086,35.266,32.364
	c-0.141,0.267-0.292,0.521-0.427,0.797c-0.983,2.006-1.775,4.216-2.386,6.546C106.358,256.567,91.006,247.998,84.233,240.661z
	 M88.833,220.993c-5.141-9.004,2.002-22.181,2.002-22.181c6.424,16.88,22.085,33.106,32.979,45.369
	c-2.282,1.308-4.297,3.179-6.014,5.538C111.511,245.066,95.383,232.462,88.833,220.993z M79.562,167.511
	c-3.473-10.898-5.089-18.173-3.076-26.062c2.016-7.891,6.631-9.357,5.788-6.783c-0.84,2.57-4.053,10.454-1.867,22.589
	c2.871,15.925,12.744,40.015,12.744,40.015S85.005,184.576,79.562,167.511z M70.253,146.327c0,0-0.31,8.847,4.151,21.71
	c2.833,8.179,10.122,22.979,14.096,30.846c-1.327,2.782-4.556,10.558-3.293,17.884c-7.194-9.391-20.647-28.287-22.972-41.11
	C59.527,160.734,70.253,146.327,70.253,146.327z M56.137,161.106c-0.195,2.437-1.332,10.025,3.023,20.294
	c5.715,13.473,19.091,32.757,19.091,32.757s-9.568-9.575-17.714-23.545c-5.201-8.921-8.074-15.017-7.967-22.374
	C52.681,160.88,56.329,158.67,56.137,161.106z M52.586,182.347c0,0,4.501,11.885,13.548,23.377
	c4.297,5.458,8.777,10.797,12.294,14.895c-0.632,2.346-2.018,9.079,0.624,15.63c-7.849-6.62-21.227-18.608-25.994-27.188
	C46.197,196.711,52.586,182.347,52.586,182.347z M41.686,195.384c0.436,2.305,1.306,9.622,7.939,18.028
	c8.708,11.031,25.979,25.502,25.979,25.502s-11.285-6.443-22.37-17.318c-7.077-6.944-11.282-11.86-13.046-18.704
	C38.428,196.051,41.246,193.079,41.686,195.384z M38.303,238.547c-3.452-6.165-1.487-9.759-0.474-7.641
	c1.013,2.114,3.724,8.967,12.287,15.398c11.235,8.438,31.635,18.013,31.635,18.013s-12.56-3.344-26.057-11.025
	C47.079,248.389,41.757,244.71,38.303,238.547z M80.272,267.395l0.001,0.06c0,0.327,0.119,6.491,4.615,11.127
	c-7.521-1.366-18.3-3.836-25.422-7.667c-12.339-6.638-14-20.056-14-20.056C55.625,258.606,67.441,263.571,80.272,267.395z
	 M47.132,267.798c1.414,1.514,5.509,6.559,14.414,9.699c11.688,4.123,31.381,6.775,31.381,6.775s-11.452,0.513-24.837-2.374
	c-8.548-1.843-13.997-3.526-18.534-7.798C45.018,269.829,45.721,266.286,47.132,267.798z M74.955,288.093
	c3.688,0.286,7.84,0.481,11.099,0.606c0.523,0.856,3.561,5.647,7.098,7.687c0.904,0.524,1.812,0.98,2.72,1.376
	c-11.359,1.245-20.299,1.623-26.34-1.642c-6.549-3.536-10.483-10.869-10.483-10.869S67.494,287.515,74.955,288.093z M68.124,303.029
	c-4.601-2.114-4.978-5.025-3.496-4.227c1.479,0.801,5.939,3.625,13.611,3.738c10.068,0.146,25.92-2.913,25.92-2.913
	s-8.685,3.36-19.742,4.608C77.36,305.028,72.724,305.145,68.124,303.029z M96.768,307.24l0.078,0.069
	c0.175,0.148,4.363,3.626,7.975,4.835c1.301,0.434,2.653,0.721,3.993,0.87c-7.886,3.448-18.29,5.767-29.299-3.639
	C86.32,309.639,91.854,308.633,96.768,307.24z M91.731,321.166c-3.869-0.389-4.678-2.764-3.424-2.457
	c1.254,0.304,5.12,1.531,10.845,0.119c7.511-1.853,18.695-7.222,18.695-7.222s-5.029,3.889-13.001,6.974
	C99.754,320.549,95.806,321.573,91.731,321.166z M128.913,308.727c2.209,2.09,4.404,3.914,6.474,5.526
	c-2.806,2.518-7.522,6.261-10.794,6.263c-4.773,0.007-11.027-2.342-11.027-2.342L128.913,308.727z M111.707,319.675l1.136,0.427
	c0.244,0.093,5.551,2.062,10.336,2.415c-5.766,3.514-11.72,4.144-22.031-0.041C104.648,321.972,108.322,321.044,111.707,319.675z
	 M112.031,328.446c1.129,0.02,4.653,0.335,9.263-1.952c6.048-3.003,14.562-9.692,14.562-9.692s-3.549,4.267-9.759,8.402
	c-3.965,2.642-7.134,4.261-10.684,4.687C112.043,330.296,110.903,328.423,112.031,328.446z M139.817,317.583
	c0.107,0.078,0.221,0.163,0.326,0.238c2.331,1.709,4.479,3.284,5.907,4.66c-0.584,0.444-1.146,0.813-1.66,1.087
	c-6.364,3.366-14.632,1.269-14.632,1.269C133.411,322.976,136.907,320.233,139.817,317.583z M120.979,331.566
	c2.85-1.213,5.639-2.936,8.165-4.762l0.11,0.03c0.114,0.027,2.831,0.707,6.399,0.707c2.221,0,4.271-0.264,6.14-0.771
	c-2.103,1.991-4.382,3.762-6.129,4.536C129.084,334.225,120.979,331.566,120.979,331.566z M135.286,333.827
	c0.691-0.096,3.21-0.572,5.807-2.417c3.407-2.422,7.638-7.007,7.638-7.007s-1.757,3.262-5.156,6.393
	c-2.168,1.998-4.079,3.333-6.251,3.761C135.028,335.008,134.596,333.925,135.286,333.827z M165.873,332.51
	c-14.062,3.088-23.755,1.459-23.755,1.459s7.751-3.479,7.751-8.704c0-7.109-21.815-12.58-32.863-36.236
	c-6.569-14.062-3.904-41.104,11.993-44.681c0,0-14.838-14.834-27.187-37.817c-12.35-22.982-16.808-41.508-13.206-57.46
	c3.462-15.338,21.952-28.643,21.952-28.643s-12.737,26.525-5.773,48.653c12.19,38.734,29.001,51.667,37.893,64.883
	c7.031,10.45,6.816,20.591,0.813,24.364c-6.004,3.774-14.921,0.858-14.921,0.858c-13.281,24.526,10.805,56.602,55.743,66.205
	C184.313,325.392,179.677,329.48,165.873,332.51z M209.646,351.943h-20.644V226.729h-42.207v-20.645h42.207V163.95h20.644v42.134
	h42.207v20.645h-42.207V351.943z M233.411,332.51c-13.805-3.029-18.438-7.118-18.438-7.118
	c44.938-9.604,69.022-41.679,55.742-66.205c0,0-8.919,2.916-14.922-0.858c-6.005-3.773-6.217-13.914,0.812-24.364
	c8.893-13.216,25.705-26.148,37.893-64.883c6.965-22.128-5.773-48.653-5.773-48.653s18.49,13.305,21.954,28.643
	c3.603,15.952-0.856,34.478-13.209,57.46c-12.348,22.983-27.184,37.817-27.184,37.817c15.896,3.576,18.562,30.618,11.99,44.681
	c-11.047,23.656-32.863,29.127-32.863,36.236c0,5.226,7.749,8.704,7.749,8.704S247.476,335.598,233.411,332.51z M285.721,318.174
	c0,0-6.256,2.349-11.026,2.342c-3.274-0.002-7.989-3.745-10.798-6.263c2.073-1.612,4.268-3.437,6.477-5.526L285.721,318.174z
	 M259.467,317.583c2.912,2.65,6.408,5.393,10.06,7.254c0,0-8.266,2.098-14.633-1.269c-0.516-0.273-1.075-0.643-1.658-1.087
	c1.427-1.376,3.573-2.951,5.904-4.66C259.248,317.746,259.358,317.661,259.467,317.583z M261.961,334.557
	c-2.169-0.428-4.08-1.763-6.254-3.761c-3.396-3.131-5.151-6.393-5.151-6.393s4.228,4.585,7.636,7.007
	c2.602,1.845,5.116,2.321,5.807,2.417C264.691,333.925,264.254,335.008,261.961,334.557z M263.622,331.307
	c-1.748-0.774-4.026-2.545-6.131-4.536c1.867,0.508,3.922,0.771,6.143,0.771c3.564,0,6.284-0.68,6.398-0.707l0.107-0.03
	c2.531,1.826,5.319,3.549,8.166,4.762C278.306,331.566,270.203,334.225,263.622,331.307z M283.873,329.891
	c-3.55-0.426-6.72-2.045-10.687-4.687c-6.209-4.136-9.757-8.402-9.757-8.402s8.515,6.689,14.561,9.692
	c4.613,2.287,8.136,1.972,9.266,1.952C288.38,328.423,287.24,330.296,283.873,329.891z M276.107,322.517
	c4.783-0.353,10.091-2.322,10.335-2.415l1.134-0.427c3.387,1.369,7.059,2.297,10.562,2.801
	C287.826,326.66,281.87,326.03,276.107,322.517z M307.555,321.166c-4.077,0.407-8.026-0.617-13.116-2.586
	c-7.971-3.085-13.001-6.974-13.001-6.974s11.184,5.369,18.697,7.222c5.72,1.412,9.586,0.185,10.843-0.119
	C312.232,318.402,311.423,320.777,307.555,321.166z M290.473,313.015c1.34-0.149,2.689-0.437,3.994-0.87
	c3.606-1.209,7.796-4.687,7.972-4.835l0.081-0.069c4.912,1.393,10.442,2.398,17.251,2.136
	C308.763,318.781,298.358,316.463,290.473,313.015z M331.162,303.029c-4.604,2.115-9.233,1.999-16.294,1.207
	c-11.056-1.248-19.743-4.608-19.743-4.608s15.853,3.06,25.919,2.913c7.676-0.113,12.135-2.938,13.614-3.738
	C336.137,298.004,335.759,300.915,331.162,303.029z M329.752,296.12c-6.041,3.265-14.979,2.887-26.338,1.642
	c0.907-0.396,1.816-0.852,2.72-1.376c3.535-2.039,6.571-6.83,7.101-7.687c3.257-0.125,7.408-0.32,11.096-0.606
	c7.462-0.578,15.906-2.842,15.906-2.842S336.302,292.584,329.752,296.12z M349.73,274.101c-4.538,4.271-9.99,5.955-18.537,7.798
	c-13.385,2.887-24.837,2.374-24.837,2.374s19.694-2.652,31.382-6.775c8.908-3.141,13-8.186,14.413-9.699
	C353.565,266.286,354.266,269.829,349.73,274.101z M339.816,270.914c-7.12,3.831-17.899,6.301-25.42,7.667
	c4.498-4.636,4.612-10.8,4.616-11.127v-0.06c12.831-3.823,24.647-8.788,34.804-16.536
	C353.816,250.858,352.157,264.276,339.816,270.914z M343.588,253.292c-13.497,7.682-26.052,11.025-26.052,11.025
	s20.396-9.574,31.632-18.013c8.566-6.432,11.276-13.284,12.286-15.398c1.013-2.118,2.979,1.476-0.474,7.641
	C357.531,244.71,352.204,248.389,343.588,253.292z"/>
<line fill="none" stroke="#4F3D3F" stroke-width="3" stroke-miterlimit="10" x1="32.673" y1="466" x2="366.607" y2="466"/>
</svg>
