<?xml version="1.0" encoding="utf-8"?>
<!-- Generator: Adobe Illustrator 23.0.2, SVG Export Plug-In . SVG Version: 6.00 Build 0)  -->
<svg version="1.1" xmlns="http://www.w3.org/2000/svg" xlink="http://www.w3.org/1999/xlink" x="0px" y="0px"
	 viewBox="0 0 279.72 412.75" space="preserve">
<style type="text/css">
  #floristik{
	    fill:#4F3D3F;
  }
</style>


<g id="floristik">
			<path class="st2" d="M139.86,411.61c77.25,0,139.86-78.93,139.86-176.35C202.47,235.26,139.86,314.23,139.86,411.61z
				 M40.41,169.56c0,22.72,17.4,41.19,38.85,41.19c8.21,0,15.68-2.65,22.05-7.22l-0.31,3.11c0,22.72,17.4,41.19,38.85,41.19
				s38.85-18.47,38.85-41.19l-0.3-3.11c6.21,4.57,13.83,7.22,22.05,7.22c21.44,0,38.85-18.47,38.85-41.19
				c0-16.49-9.15-30.47-22.2-37.08c13.05-6.57,22.2-20.6,22.2-37.04c0-22.77-17.42-41.19-38.85-41.19c-8.23,0-15.68,2.65-22.05,7.22
				l0.3-3.11c0.01-22.74-17.38-41.21-38.83-41.21s-38.85,18.47-38.85,41.19l0.31,3.11c-6.23-4.57-13.84-7.22-22.07-7.22
				c-21.46,0-38.85,18.43-38.85,41.19c0,16.45,9.15,30.47,22.2,37.04C49.56,139.09,40.41,153.08,40.41,169.56z M139.86,91.28
				c21.46,0,38.85,18.47,38.85,41.19c0,22.77-17.4,41.19-38.85,41.19s-38.85-18.43-38.85-41.19
				C101.01,109.75,118.4,91.28,139.86,91.28z M0,235.26c0,97.42,62.62,176.35,139.86,176.35C139.86,314.23,77.25,235.26,0,235.26z"
				/>	
</g>
</svg>
