<?xml version="1.0" encoding="utf-8"?>
<!-- Generator: Adobe Illustrator 23.0.2, SVG Export Plug-In . SVG Version: 6.00 Build 0)  -->
<svg version="1.1" xmlns="http://www.w3.org/2000/svg" xmlns:xlink="http://www.w3.org/1999/xlink" x="0px" y="0px"
	 viewBox="0 0 279.72 412.75" style="enable-background:new 0 0 279.72 412.75;" xml:space="preserve">
<style type="text/css">
   #sarg{
	    fill:#4F3D3F;
   }

</style>

<g id="sarg">
	<g>
		<path class="st2" d="M59.56,412.75c-3.29-17.27-6.55-34.36-9.81-51.45c-11.49-60.28-22.97-120.57-34.46-180.85
			c-4.16-21.8-8.39-43.59-12.38-65.43c-0.4-2.21,0.09-4.96,1.1-7C21.16,73.46,38.5,38.99,55.64,4.42c1.46-2.94,3.13-3.83,6.3-3.82
			c31.67,0.14,63.34,0.15,95.01,0.06c3.02-0.01,4.6,0.89,5.94,3.63c16.99,34.64,34.14,69.21,51.09,103.87
			c1.05,2.15,1.42,5.08,0.98,7.43c-13.16,71.19-26.47,142.35-39.75,213.52c-4.98,26.67-9.94,53.34-14.92,80.01
			c-0.21,1.14-0.56,2.25-0.91,3.62C126.17,412.75,92.99,412.75,59.56,412.75z"/>
		<path class="st2" d="M276.82,120.54c-1.78,8.92-3.38,17.14-5.06,25.35c-17.66,86.68-35.34,173.36-53,260.04
			c-1.38,6.75-1.34,6.76-8.14,6.76c-11.29,0-22.59,0-34.46,0c1.99-10.61,3.87-20.67,5.75-30.73
			c10.56-56.6,21.12-113.21,31.69-169.81c5.48-29.37,10.96-58.74,16.57-88.09c0.25-1.3,1.76-3.37,2.71-3.38
			C247.24,120.47,261.6,120.54,276.82,120.54z"/>
		<path class="st2" d="M275.48,104.4c-14.59,0-28.53,0.06-42.47-0.1c-1.24-0.01-3.07-1.07-3.61-2.15
			C212.7,68.5,196.13,34.79,179.54,1.09c-0.06-0.11-0.01-0.28-0.01-0.82c0.89-0.08,1.8-0.24,2.72-0.24
			c12.49-0.02,24.99-0.09,37.47,0.1c1.47,0.02,3.64,1.15,4.28,2.39c16.93,33.05,33.71,66.18,50.5,99.3
			C274.82,102.43,275,103.11,275.48,104.4z"/>
	</g>
</g>

</svg>
