<?xml version="1.0" encoding="utf-8"?>
<!-- Generator: Adobe Illustrator 23.0.2, SVG Export Plug-In . SVG Version: 6.00 Build 0)  -->
<svg version="1.1" xmlns="http://www.w3.org/2000/svg" xmlns:xlink="http://www.w3.org/1999/xlink" x="0px" y="0px"
	 viewBox="0 0 279.72 412.75" style="enable-background:new 0 0 279.72 412.75;" xml:space="preserve">
<style type="text/css">
   #urne{
	   fill:#4F3D3F;
   }
</style>
<g id="urne" class="st0">
		<path class="st2" d="M239.01,107.85c-13.08-11.76-26.42-15.84-32.97-17.21V37.65l9.63-9.21c5.68-0.85,10.06-5.75,10.06-11.66
			v-4.97c0-6.51-5.3-11.81-11.81-11.81H65.12c-6.51,0-11.81,5.3-11.81,11.81v4.97c0,5.9,4.35,10.78,10,11.65l9.64,9.22v52.99
			c-6.55,1.37-19.89,5.45-32.97,17.21C23.76,122.43,4.84,152.16,6.81,211.03c1.94,57.94,20.07,105.61,34.93,135.4
			c11.84,23.73,23.33,39.94,28.86,47.2c-2.11,2.02-3.43,4.86-3.43,8.01c0,6.13,4.99,11.11,11.12,11.11H200.7
			c6.13,0,11.11-4.99,11.11-11.11c0-3.15-1.32-5.98-3.43-8.01c5.54-7.26,17.02-23.47,28.86-47.2
			c14.86-29.79,32.99-77.46,34.93-135.4C274.15,152.16,255.23,122.43,239.01,107.85z"/>
	</g>
</svg>
